<svg width="11716" height="1920" viewBox="0 0 11716 1920" fill="none" xmlns="http://www.w3.org/2000/svg">
<path d="M2311.81 1260.53C2311.81 1623.07 2605.41 1916.66 2964.45 1916.66H4355.73V1571.32H2964.45C2815.9 1571.32 2691.7 1433.12 2691.7 1260.53C2691.7 1087.93 2812.55 960.085 2964.45 960.085H4355.73V614.744H2964.45C2601.75 614.744 2311.81 901.336 2311.81 1260.53Z" fill="#02345D"/>
<path d="M4355.71 0H2396.26V345.341H4355.71V0Z" fill="#02345D"/>
<path d="M5769.68 2.58594C5076.55 2.58594 4638.51 368.17 4638.51 957.944C4638.51 1551.07 5073.05 1916.65 5769.68 1916.65C6469.81 1916.65 6897.49 1554.57 6897.49 957.944C6897.34 368.17 6459.46 2.58594 5769.68 2.58594ZM5769.68 1571.77C5276.54 1571.77 5017.8 1354.42 5017.8 957.944C5017.8 564.812 5276.39 347.471 5769.68 347.471C6255.96 347.471 6518.05 564.812 6518.05 957.944C6518.05 1357.92 6266.31 1571.77 5769.68 1571.77Z" fill="#02345D"/>
<path d="M10742.4 2.58594H10559.6C10025.1 2.58594 9587.07 430.267 9587.07 957.944V1916.65H9966.51V1378.62H11335.7V1916.65H11715.2V957.792C11715 430.115 11277 2.58594 10742.4 2.58594ZM9966.51 1033.74V957.792C9966.51 619.756 10232.1 347.318 10559.6 347.318H10742.4C11070.1 347.318 11335.6 619.756 11335.6 957.792V1033.74H9966.51Z" fill="#02345D"/>
<path d="M1110.77 2.58594H0V6.08653V347.471V944.703H379.44V347.471H1110.77C1438.46 347.471 1707.4 619.908 1707.4 957.944C1707.4 1299.33 1441.81 1571.77 1110.77 1571.77H0V1916.65H1110.77C1648.81 1916.65 2086.84 1488.97 2086.84 957.944C2086.69 430.115 1648.81 2.58594 1110.77 2.58594Z" fill="#02345D"/>
<path d="M9284.94 656.133C9284.94 293.593 8991.49 0 8632.3 0H7210.58V345.341H8632.3C8780.85 345.341 8905.04 483.539 8905.04 656.133C8905.04 828.728 8784.19 956.576 8632.3 956.576H7210.58V1102.69V1301.92V1402.67L9213.71 1920V1550.92L8100.65 1301.76H8632.3C8994.84 1301.92 9284.94 1015.32 9284.94 656.133Z" fill="#02345D"/>
</svg>
